<svg width="103" height="22" viewBox="0 0 103 22" fill="none" xmlns="http://www.w3.org/2000/svg">
<g clip-path="url(#clip0_102_803)">
<path fill-rule="evenodd" clip-rule="evenodd" d="M6.76667 12.7826L6.79457 20.7819H8.5964C12.2377 20.7819 13.4765 18.1024 13.4765 15.4229C13.4765 14.4647 13.3648 13.5642 13.076 12.7826H17.27C17.6446 13.4829 17.831 14.2931 17.831 15.2047C17.831 19.1305 14.0396 21 8.63398 21H0V20.813H0.713239C1.91448 20.813 2.55265 20.7508 2.55265 20.003V12.7826H6.76667ZM2.55265 8.8261V0.997034C2.55265 0.2181 1.91448 0.186942 0.713239 0.186942H0V0H9.38472C14.002 0 16.5922 1.55787 16.5922 4.89169C16.5922 6.57188 15.7564 7.94056 14.1309 8.8261H10.938C12.1668 7.83786 12.538 6.18238 12.538 4.64243C12.538 2.33679 11.4869 0.2181 8.25858 0.2181H6.79457L6.76057 8.8261H2.55265Z" fill="#CA90BD"/>
<path d="M17.7682 11.788C17.6284 11.788 17.5033 11.7512 17.3928 11.6775C17.2846 11.6016 17.2 11.5001 17.1391 11.3729C17.0783 11.2457 17.0479 11.1062 17.0479 10.9544C17.0479 10.7982 17.0783 10.6565 17.1391 10.5292C17.2 10.402 17.2823 10.3027 17.386 10.2313C17.492 10.1576 17.6069 10.1208 17.731 10.1208C17.8685 10.1208 17.9868 10.1699 18.086 10.2681C18.1853 10.3641 18.2506 10.4913 18.2822 10.6498C18.2979 10.7212 18.3058 10.8328 18.3058 10.9845H17.4807C17.4807 11.0917 17.483 11.1765 17.4875 11.239C17.492 11.2992 17.5021 11.3584 17.5179 11.4164C17.5382 11.499 17.5765 11.5648 17.6329 11.6139C17.6915 11.663 17.7591 11.6875 17.8358 11.6875C17.9463 11.6875 18.0353 11.6396 18.1029 11.5436C18.1706 11.4476 18.2112 11.3349 18.2247 11.2055H18.3126C18.2991 11.3595 18.2484 11.4957 18.1605 11.6139C18.0725 11.73 17.9418 11.788 17.7682 11.788ZM17.9136 10.8908C17.9136 10.6565 17.8978 10.4835 17.8662 10.3719C17.8369 10.258 17.7806 10.2011 17.6972 10.2011C17.6137 10.2011 17.5562 10.258 17.5247 10.3719C17.4954 10.4835 17.4807 10.6565 17.4807 10.8908H17.9136Z" fill="#CA90BD"/>
<path d="M15.003 11.788C14.8633 11.788 14.7381 11.7512 14.6277 11.6775C14.5194 11.6016 14.4349 11.5001 14.374 11.3729C14.3131 11.2457 14.2827 11.1062 14.2827 10.9544C14.2827 10.8027 14.312 10.6631 14.3706 10.5359C14.4315 10.4087 14.5161 10.3082 14.6243 10.2346C14.7347 10.1587 14.8588 10.1208 14.9963 10.1208C15.1045 10.1208 15.1947 10.1431 15.2668 10.1878C15.3412 10.2324 15.3965 10.2893 15.4325 10.3585C15.4686 10.4277 15.4866 10.4991 15.4866 10.5728C15.4866 10.6531 15.4618 10.7234 15.4122 10.7837C15.3626 10.8417 15.3028 10.8707 15.233 10.8707C15.1811 10.8707 15.1383 10.8562 15.1045 10.8272C15.0706 10.796 15.0537 10.7546 15.0537 10.7033C15.0537 10.6431 15.0899 10.5839 15.162 10.5259C15.2161 10.4812 15.2431 10.4355 15.2431 10.3886C15.2431 10.3418 15.2251 10.2993 15.189 10.2614C15.1552 10.2212 15.1 10.2011 15.0233 10.2011C14.9174 10.2011 14.8395 10.2681 14.79 10.402C14.7404 10.5337 14.7156 10.7178 14.7156 10.9544C14.7156 11.0727 14.7178 11.1653 14.7223 11.2322C14.7269 11.297 14.737 11.3584 14.7528 11.4164C14.7731 11.499 14.8114 11.5648 14.8678 11.6139C14.9264 11.663 14.994 11.6875 15.0706 11.6875C15.1811 11.6875 15.2702 11.6396 15.3379 11.5436C15.4055 11.4476 15.446 11.3349 15.4596 11.2055H15.5475C15.5339 11.3595 15.4832 11.4957 15.3953 11.6139C15.3074 11.73 15.1766 11.788 15.003 11.788Z" fill="#CA90BD"/>
<path d="M11.1929 11.6675H11.3213C11.3416 11.6675 11.3551 11.6641 11.3619 11.6574C11.3709 11.6485 11.3754 11.634 11.3754 11.6139V10.2949C11.3754 10.2748 11.3709 10.2614 11.3619 10.2547C11.3551 10.2458 11.3416 10.2413 11.3213 10.2413H11.1929V10.161H11.7677V10.4589L11.7846 10.4623C11.8297 10.3574 11.8873 10.2748 11.9571 10.2145C12.0293 10.1521 12.1116 10.1208 12.204 10.1208C12.2603 10.1208 12.3088 10.1275 12.3494 10.1409C12.39 10.1521 12.4283 10.1699 12.4644 10.1944C12.5207 10.2346 12.5647 10.2904 12.5963 10.3619C12.6301 10.4333 12.647 10.5069 12.647 10.5828V11.6139C12.647 11.634 12.6504 11.6485 12.6571 11.6574C12.6662 11.6641 12.6808 11.6675 12.7011 11.6675H12.8296V11.7479H12.0924V11.6675H12.2006C12.2209 11.6675 12.2344 11.6641 12.2412 11.6574C12.2502 11.6485 12.2547 11.634 12.2547 11.6139V10.4857C12.2547 10.3139 12.2029 10.2279 12.0992 10.2279C12.0518 10.2279 12.0022 10.2592 11.9504 10.3217C11.8985 10.3842 11.8546 10.4667 11.8184 10.5694C11.7846 10.6721 11.7677 10.7815 11.7677 10.8975V11.6139C11.7677 11.634 11.7711 11.6485 11.7779 11.6574C11.7869 11.6641 11.8015 11.6675 11.8218 11.6675H11.9301V11.7479H11.1929V11.6675Z" fill="#CA90BD"/>
<path d="M8.75841 11.788C8.63438 11.788 8.52845 11.7579 8.44048 11.6977C8.35484 11.6373 8.31201 11.5358 8.31201 11.393C8.31201 11.2479 8.36498 11.1341 8.47091 11.0515C8.57916 10.9667 8.71552 10.8964 8.88012 10.8406L9.13036 10.7535V10.5259C9.13036 10.4121 9.10669 10.3295 9.05936 10.2781C9.01203 10.2268 8.95111 10.2011 8.87674 10.2011C8.81363 10.2011 8.75841 10.2156 8.71101 10.2447C8.66593 10.2714 8.64339 10.3094 8.64339 10.3585C8.64339 10.3719 8.64678 10.3886 8.65354 10.4087C8.66255 10.4266 8.6772 10.4422 8.69749 10.4556C8.73129 10.4757 8.75503 10.4969 8.76855 10.5192C8.78433 10.5415 8.79221 10.5705 8.79221 10.6062C8.79221 10.6598 8.77193 10.7022 8.7313 10.7334C8.69298 10.7624 8.65016 10.777 8.60283 10.777C8.54423 10.777 8.49345 10.758 8.45062 10.72C8.41005 10.6799 8.38977 10.623 8.38977 10.5494C8.38977 10.4645 8.41569 10.3898 8.46753 10.325C8.51943 10.258 8.58592 10.2078 8.66706 10.1744C8.74826 10.1387 8.83053 10.1208 8.91392 10.1208C9.07627 10.1208 9.21833 10.1643 9.34003 10.2513C9.46181 10.3362 9.52266 10.4723 9.52266 10.6598V11.5068C9.52266 11.5871 9.5452 11.6273 9.59028 11.6273C9.63085 11.6273 9.66128 11.5938 9.68163 11.5269C9.70191 11.4599 9.71205 11.3829 9.71205 11.2959H9.80671C9.80671 11.4588 9.78192 11.5782 9.73234 11.6541C9.70755 11.6942 9.67254 11.7267 9.62747 11.7512C9.58239 11.7758 9.53055 11.788 9.47195 11.788C9.37948 11.788 9.30961 11.7746 9.26228 11.7479C9.21488 11.7189 9.17544 11.6719 9.14388 11.6072H9.13712C9.04697 11.7278 8.92068 11.788 8.75841 11.788ZM8.92407 11.6541C9.01203 11.6541 9.08077 11.605 9.13036 11.5068V10.8439L8.94097 10.9109C8.86659 10.9377 8.81137 10.989 8.77531 11.0649C8.74144 11.1385 8.72453 11.2379 8.72453 11.3628C8.72453 11.4722 8.74482 11.5481 8.78545 11.5905C8.82602 11.6329 8.87223 11.6541 8.92407 11.6541Z" fill="#CA90BD"/>
<path d="M6.02051 11.6675H6.20988C6.23018 11.6675 6.2437 11.6641 6.25047 11.6574C6.25948 11.6485 6.26399 11.634 6.26399 11.6139V9.49811C6.26399 9.47803 6.25948 9.46464 6.25047 9.45794C6.2437 9.44902 6.23018 9.44456 6.20988 9.44456H6.02051V9.36417H6.65627V11.6139C6.65627 11.634 6.65965 11.6485 6.66642 11.6574C6.67543 11.6641 6.69008 11.6675 6.71037 11.6675H6.89976V11.7479H6.02051V11.6675Z" fill="#CA90BD"/>
<path d="M3.63389 11.788C3.50989 11.788 3.40394 11.7579 3.31601 11.6977C3.23034 11.6373 3.1875 11.5358 3.1875 11.393C3.1875 11.2479 3.24049 11.1341 3.34644 11.0515C3.45466 10.9667 3.59106 10.8964 3.75564 10.8406L4.00588 10.7535V10.5259C4.00588 10.4121 3.98221 10.3295 3.93486 10.2781C3.88752 10.2268 3.82665 10.2011 3.75226 10.2011C3.68913 10.2011 3.63389 10.2156 3.58654 10.2447C3.54145 10.2714 3.51892 10.3094 3.51892 10.3585C3.51892 10.3719 3.5223 10.3886 3.52906 10.4087C3.53807 10.4266 3.55273 10.4422 3.57302 10.4556C3.60684 10.4757 3.63051 10.4969 3.64404 10.5192C3.65982 10.5415 3.66771 10.5705 3.66771 10.6062C3.66771 10.6598 3.64742 10.7022 3.60684 10.7334C3.56851 10.7624 3.52568 10.777 3.47833 10.777C3.41971 10.777 3.36899 10.758 3.32615 10.72C3.28558 10.6799 3.26528 10.623 3.26528 10.5494C3.26528 10.4645 3.29121 10.3898 3.34306 10.325C3.39491 10.258 3.46142 10.2078 3.54259 10.1744C3.62375 10.1387 3.70604 10.1208 3.78945 10.1208C3.95178 10.1208 4.09381 10.1643 4.21555 10.2513C4.3373 10.3362 4.39816 10.4723 4.39816 10.6598V11.5068C4.39816 11.5871 4.42071 11.6273 4.4658 11.6273C4.50638 11.6273 4.53682 11.5938 4.55711 11.5269C4.5774 11.4599 4.58754 11.3829 4.58754 11.2959H4.68223C4.68223 11.4588 4.65743 11.5782 4.60783 11.6541C4.58303 11.6942 4.54809 11.7267 4.503 11.7512C4.45791 11.7758 4.40606 11.788 4.34744 11.788C4.255 11.788 4.18512 11.7746 4.13777 11.7479C4.09043 11.7189 4.05097 11.6719 4.01941 11.6072H4.01265C3.92247 11.7278 3.79621 11.788 3.63389 11.788ZM3.7996 11.6541C3.88752 11.6541 3.95628 11.605 4.00588 11.5068V10.8439L3.8165 10.9109C3.74211 10.9377 3.68687 10.989 3.6508 11.0649C3.61699 11.1385 3.60007 11.2379 3.60007 11.3628C3.60007 11.4722 3.62037 11.5481 3.66095 11.5905C3.70152 11.6329 3.74774 11.6541 3.7996 11.6541Z" fill="#CA90BD"/>
<path d="M1.07599 11.788C0.994833 11.788 0.92607 11.7679 0.869704 11.7278C0.815598 11.6876 0.767127 11.6351 0.724291 11.5704C0.697238 11.528 0.674693 11.499 0.656657 11.4834C0.638621 11.4677 0.617203 11.4599 0.592403 11.4599C0.554077 11.4599 0.521387 11.4912 0.494333 11.5537L0.399644 11.7479H0.345536V9.49811C0.345536 9.47803 0.341027 9.46464 0.332009 9.45794C0.325246 9.44902 0.311719 9.44456 0.291428 9.44456H0.102051V9.36417H0.737821V10.3518L0.758112 10.3585C0.79418 10.2848 0.840398 10.2268 0.896757 10.1844C0.953123 10.142 1.01738 10.1208 1.08952 10.1208C1.20675 10.1208 1.31046 10.161 1.40064 10.2413C1.49082 10.3195 1.56071 10.4221 1.61031 10.5494C1.65991 10.6765 1.6847 10.8116 1.6847 10.9544C1.6847 11.095 1.65878 11.23 1.60693 11.3595C1.55507 11.4867 1.48293 11.5905 1.3905 11.6708C1.29806 11.749 1.19323 11.788 1.07599 11.788ZM1.02865 11.6809C1.17744 11.6809 1.25185 11.4387 1.25185 10.9544C1.25185 10.4701 1.17744 10.2279 1.02865 10.2279C0.988065 10.2279 0.945235 10.2547 0.900145 10.3082C0.855054 10.3619 0.816725 10.4444 0.785165 10.556C0.753598 10.6676 0.737821 10.8038 0.737821 10.9644C0.737821 11.0961 0.751344 11.2166 0.778397 11.326C0.805456 11.4354 0.840397 11.5224 0.883234 11.5871C0.928324 11.6496 0.976795 11.6809 1.02865 11.6809Z" fill="#CA90BD"/>
<path fill-rule="evenodd" clip-rule="evenodd" d="M17.3928 11.6775C17.5033 11.7511 17.6283 11.788 17.7682 11.788C17.9417 11.788 18.0725 11.7299 18.1604 11.6139C18.2366 11.5114 18.2848 11.3956 18.3052 11.2663C18.3083 11.2464 18.3108 11.2261 18.3126 11.2055H18.2247C18.2112 11.3349 18.1705 11.4476 18.1029 11.5436C18.0353 11.6396 17.9462 11.6875 17.8358 11.6875C17.7591 11.6875 17.6915 11.663 17.6329 11.6139C17.5765 11.5648 17.5382 11.4989 17.5179 11.4164C17.5021 11.3583 17.492 11.2992 17.4875 11.2389C17.4838 11.1888 17.4816 11.1242 17.4809 11.0453C17.4808 11.0259 17.4807 11.0056 17.4807 10.9845H18.3058C18.3058 10.9634 18.3057 10.9432 18.3054 10.9236C18.3035 10.8025 18.2958 10.7112 18.2822 10.6497C18.2506 10.4913 18.1852 10.364 18.086 10.2681C17.9868 10.1698 17.8684 10.1208 17.731 10.1208C17.6069 10.1208 17.492 10.1576 17.386 10.2312C17.2823 10.3027 17.2 10.402 17.1391 10.5292C17.0783 10.6564 17.0478 10.7981 17.0478 10.9544C17.0478 11.1061 17.0783 11.2456 17.1391 11.3728C17.2 11.5001 17.2846 11.6016 17.3928 11.6775ZM17.3507 10.1813C17.4665 10.1009 17.5937 10.0599 17.731 10.0599C17.885 10.0599 18.0189 10.1156 18.1292 10.2248C18.2385 10.3306 18.3088 10.4694 18.3424 10.6374C18.3595 10.7155 18.3673 10.8324 18.3673 10.9845V11.0453H17.5424C17.5432 11.1232 17.5453 11.1861 17.5487 11.2344C17.553 11.2909 17.5625 11.3462 17.5772 11.4005L17.5774 11.4012L17.5776 11.4019C17.5953 11.474 17.6277 11.5281 17.6731 11.5678C17.7205 11.6074 17.7739 11.6266 17.8358 11.6266C17.9245 11.6266 17.9954 11.5898 18.0525 11.5087C18.1135 11.4222 18.1509 11.3195 18.1635 11.1992L18.1692 11.1446H18.3797L18.3738 11.2107C18.3594 11.3752 18.3049 11.5222 18.2099 11.6499L18.2096 11.6504C18.1078 11.7847 17.9571 11.8489 17.7682 11.8489C17.6167 11.8489 17.4795 11.8088 17.3584 11.728L17.3578 11.7276L17.3572 11.7272C17.2398 11.6448 17.1486 11.5348 17.0836 11.3989C17.0185 11.2629 16.9863 11.1144 16.9863 10.9544C16.9863 10.7901 17.0184 10.6393 17.0836 10.5031C17.1484 10.3676 17.2372 10.2595 17.3507 10.1813ZM17.9132 10.8299C17.9134 10.8497 17.9135 10.87 17.9135 10.8907H17.4807C17.4807 10.87 17.4808 10.8497 17.481 10.8299C17.4834 10.6262 17.498 10.4736 17.5247 10.3718C17.5562 10.258 17.6137 10.2011 17.6971 10.2011C17.7805 10.2011 17.8369 10.258 17.8662 10.3718C17.895 10.4736 17.9106 10.6262 17.9132 10.8299ZM17.8517 10.8299H17.5425C17.5449 10.6284 17.5593 10.482 17.5841 10.3875C17.5982 10.3366 17.6165 10.3051 17.6349 10.2868C17.6518 10.2701 17.6712 10.262 17.6971 10.262C17.7229 10.262 17.7419 10.27 17.7581 10.2864C17.7758 10.3044 17.7935 10.3357 17.8066 10.3869L17.8068 10.3876L17.807 10.3882C17.8336 10.4822 17.8491 10.6284 17.8517 10.8299Z" fill="#CA90BD"/>
<path fill-rule="evenodd" clip-rule="evenodd" d="M14.6276 11.6775C14.7381 11.7511 14.8632 11.788 15.003 11.788C15.1766 11.788 15.3074 11.7299 15.3953 11.6139C15.4714 11.5114 15.5197 11.3956 15.54 11.2663C15.5432 11.2464 15.5457 11.2261 15.5475 11.2055H15.4596C15.446 11.3349 15.4055 11.4476 15.3378 11.5436C15.2702 11.6396 15.1811 11.6875 15.0706 11.6875C14.994 11.6875 14.9264 11.663 14.8677 11.6139C14.8114 11.5648 14.7731 11.4989 14.7528 11.4164C14.737 11.3583 14.7268 11.2969 14.7223 11.2322C14.7178 11.1653 14.7156 11.0726 14.7156 10.9544C14.7156 10.7178 14.7404 10.5337 14.79 10.402C14.8395 10.2681 14.9174 10.2011 15.0233 10.2011C15.0999 10.2011 15.1552 10.2212 15.189 10.2614C15.2251 10.2993 15.2431 10.3417 15.2431 10.3886C15.2431 10.4354 15.2161 10.4812 15.162 10.5259C15.0898 10.5839 15.0537 10.643 15.0537 10.7033C15.0537 10.7546 15.0706 10.7959 15.1044 10.8271C15.1383 10.8561 15.1811 10.8706 15.233 10.8706C15.3028 10.8706 15.3626 10.8416 15.4122 10.7836C15.4618 10.7234 15.4866 10.653 15.4866 10.5727C15.4866 10.4991 15.4686 10.4276 15.4325 10.3584C15.3964 10.2893 15.3412 10.2323 15.2668 10.1877C15.1947 10.1431 15.1044 10.1208 14.9963 10.1208C14.8587 10.1208 14.7347 10.1587 14.6242 10.2345C14.516 10.3082 14.4315 10.4086 14.3706 10.5359C14.312 10.6631 14.2827 10.8026 14.2827 10.9544C14.2827 11.1061 14.3131 11.2456 14.374 11.3728C14.4349 11.5001 14.5194 11.6016 14.6276 11.6775ZM14.5893 10.1845C14.7103 10.1014 14.8466 10.0599 14.9963 10.0599C15.1127 10.0599 15.2148 10.0839 15.299 10.1358C15.3819 10.1857 15.4454 10.2504 15.4871 10.3306C15.5274 10.4079 15.5481 10.4888 15.5481 10.5727C15.5481 10.6666 15.5187 10.7506 15.4599 10.8221L15.4595 10.8225L15.4592 10.8229C15.3992 10.8931 15.3229 10.9315 15.233 10.9315C15.1688 10.9315 15.1109 10.9132 15.0642 10.8731L15.0633 10.8724L15.0625 10.8716C15.0147 10.8274 14.9923 10.7692 14.9923 10.7033C14.9923 10.6168 15.0442 10.5422 15.1229 10.4788C15.1697 10.4401 15.1816 10.41 15.1816 10.3886C15.1816 10.359 15.1709 10.3311 15.1442 10.3031L15.143 10.3017L15.1418 10.3003C15.1241 10.2794 15.0902 10.262 15.0233 10.262C14.9847 10.262 14.9532 10.2737 14.9259 10.2972C14.8973 10.3218 14.8702 10.362 14.8477 10.423L14.8476 10.4232C14.8017 10.545 14.777 10.7208 14.777 10.9544C14.777 11.0721 14.7793 11.1631 14.7837 11.228M14.5893 10.1845C14.4715 10.2647 14.3802 10.3738 14.3151 10.5098L14.3149 10.5102L14.3147 10.5106C14.2521 10.6464 14.2212 10.7947 14.2212 10.9544C14.2212 11.1144 14.2533 11.2629 14.3184 11.3989C14.3835 11.5348 14.4746 11.6448 14.5921 11.7272L14.5927 11.7276L14.5933 11.728C14.7145 11.8088 14.8516 11.8489 15.003 11.8489C15.1919 11.8489 15.3427 11.7847 15.4445 11.6504L15.4448 11.6499C15.5398 11.5222 15.5943 11.3752 15.6087 11.2107L15.6145 11.1446H15.4041L15.3984 11.1992C15.3858 11.3195 15.3484 11.4222 15.2874 11.5087C15.2303 11.5898 15.1594 11.6266 15.0706 11.6266C15.0088 11.6266 14.9554 11.6074 14.9079 11.5678C14.8625 11.5281 14.8302 11.474 14.8125 11.4019L14.8123 11.4012L14.8122 11.4005C14.7974 11.3466 14.7879 11.2891 14.7837 11.228" fill="#CA90BD"/>
<path fill-rule="evenodd" clip-rule="evenodd" d="M11.3213 11.6675H11.1929V11.7478H11.9301V11.6675H11.8218C11.8015 11.6675 11.7869 11.6641 11.7779 11.6574C11.7711 11.6485 11.7677 11.634 11.7677 11.6139V10.8974C11.7677 10.7814 11.7846 10.672 11.8184 10.5694C11.8545 10.4667 11.8985 10.3841 11.9504 10.3216C12.0022 10.2592 12.0518 10.2279 12.0991 10.2279C12.2029 10.2279 12.2547 10.3138 12.2547 10.4857V11.6139C12.2547 11.634 12.2502 11.6485 12.2412 11.6574C12.2344 11.6641 12.2209 11.6675 12.2006 11.6675H12.0924V11.7478H12.8296V11.6675H12.7011C12.6808 11.6675 12.6662 11.6641 12.6571 11.6574C12.6504 11.6485 12.647 11.634 12.647 11.6139V10.5828C12.647 10.5069 12.6301 10.4332 12.5963 10.3618C12.5647 10.2904 12.5207 10.2345 12.4644 10.1944C12.4283 10.1698 12.39 10.152 12.3494 10.1408C12.3088 10.1274 12.2603 10.1208 12.204 10.1208C12.1115 10.1208 12.0292 10.152 11.9571 10.2145C11.9085 10.2564 11.8658 10.3092 11.8292 10.3727C11.8138 10.3995 11.7994 10.4283 11.7861 10.4589C11.7856 10.46 11.7851 10.4611 11.7846 10.4622L11.7677 10.4589V10.1609H11.1929V10.2413H11.3213C11.3416 10.2413 11.3551 10.2458 11.3619 10.2547C11.3709 10.2614 11.3754 10.2748 11.3754 10.2949V11.6139C11.3754 11.634 11.3709 11.6485 11.3619 11.6574C11.3551 11.6641 11.3416 11.6675 11.3213 11.6675ZM11.8292 10.262V10.1001H11.1313V10.3021H11.314V11.6066H11.1313V11.8087H11.9915V11.6066H11.8292V10.8974C11.8292 10.7876 11.8452 10.6848 11.8767 10.5888C11.9111 10.491 11.9519 10.4155 11.9978 10.3603C12.0461 10.302 12.08 10.2888 12.0991 10.2888C12.13 10.2888 12.1486 10.2995 12.163 10.3235C12.1805 10.3525 12.1932 10.4038 12.1932 10.4857V11.6066H12.0309V11.8087H12.8911V11.6066H12.7084V10.5828C12.7084 10.4978 12.6896 10.4156 12.6522 10.3367C12.6169 10.2569 12.5665 10.1922 12.5003 10.145L12.4998 10.1446L12.4992 10.1442C12.4582 10.1164 12.4142 10.0957 12.3673 10.0826C12.3192 10.0669 12.2644 10.0599 12.204 10.0599C12.0961 10.0599 11.9995 10.0969 11.9167 10.1687C11.8849 10.196 11.8558 10.2272 11.8292 10.262Z" fill="#CA90BD"/>
<path fill-rule="evenodd" clip-rule="evenodd" d="M8.44048 11.6976C8.52838 11.7578 8.63437 11.788 8.75833 11.788C8.89867 11.788 9.01196 11.7429 9.0984 11.653C9.10457 11.6465 9.11067 11.6398 9.11657 11.6329C9.12227 11.6262 9.12783 11.6194 9.13327 11.6123C9.13453 11.6106 9.13586 11.6089 9.13711 11.6072H9.14388C9.14514 11.6098 9.14646 11.6124 9.14779 11.615C9.15594 11.631 9.16463 11.646 9.17384 11.6597C9.19936 11.698 9.22886 11.7273 9.26227 11.7478C9.3096 11.7746 9.37947 11.788 9.47188 11.788C9.53055 11.788 9.58238 11.7757 9.62746 11.7511C9.67254 11.7266 9.70747 11.6942 9.73233 11.6541C9.77549 11.5879 9.79988 11.4888 9.80545 11.3567C9.80631 11.3371 9.80671 11.3168 9.80671 11.2958H9.71198C9.71198 11.3829 9.70184 11.4599 9.68155 11.5268C9.66127 11.5938 9.63084 11.6273 9.59027 11.6273C9.54519 11.6273 9.52266 11.5871 9.52266 11.5068V10.6597C9.52266 10.4723 9.46174 10.3361 9.34003 10.2513C9.21825 10.1643 9.07626 10.1208 8.91392 10.1208C8.83052 10.1208 8.74819 10.1386 8.66705 10.1743C8.58591 10.2078 8.51936 10.258 8.46752 10.325C8.41568 10.3897 8.38976 10.4644 8.38976 10.5493C8.38976 10.6229 8.41005 10.6798 8.45062 10.72C8.49344 10.758 8.54415 10.7769 8.60282 10.7769C8.65015 10.7769 8.69297 10.7624 8.73129 10.7334C8.77186 10.7022 8.79214 10.6597 8.79214 10.6062C8.79214 10.5705 8.78425 10.5415 8.76848 10.5192C8.75495 10.4969 8.73129 10.4757 8.69748 10.4555C8.6772 10.4421 8.66255 10.4265 8.65353 10.4086C8.64677 10.3886 8.64339 10.3718 8.64339 10.3584C8.64339 10.3094 8.66593 10.2714 8.711 10.2447C8.75834 10.2156 8.81362 10.2011 8.87673 10.2011C8.95111 10.2011 9.01196 10.2267 9.05936 10.2781C9.10669 10.3294 9.13035 10.412 9.13035 10.5259V10.7535L8.88011 10.8405C8.71551 10.8963 8.57915 10.9667 8.4709 11.0514C8.36497 11.134 8.31194 11.2479 8.31194 11.3929C8.31194 11.5358 8.35483 11.6373 8.44048 11.6976ZM8.43272 11.0037C8.5476 10.9137 8.69052 10.8405 8.85996 10.783L8.86016 10.783L9.06884 10.7104V10.5259C9.06884 10.4181 9.04603 10.354 9.01395 10.3191C8.97901 10.2813 8.935 10.262 8.87673 10.262C8.82343 10.262 8.77975 10.2741 8.74335 10.2964L8.74262 10.2968C8.71472 10.3134 8.70484 10.3323 8.70484 10.3584C8.70484 10.3622 8.7059 10.3705 8.71027 10.3846C8.71385 10.3903 8.71995 10.397 8.73056 10.4042C8.76775 10.4265 8.79963 10.4531 8.82012 10.486C8.84418 10.5209 8.85366 10.5625 8.85366 10.6062C8.85366 10.6774 8.82549 10.738 8.76907 10.7815L8.76868 10.7817C8.71982 10.8187 8.66394 10.8378 8.60282 10.8378C8.52937 10.8378 8.46394 10.8135 8.40965 10.7654L8.40832 10.7643L8.40713 10.763C8.35191 10.7084 8.32825 10.6341 8.32825 10.5493C8.32825 10.4513 8.35854 10.3632 8.419 10.2876C8.47746 10.2122 8.55244 10.1558 8.64273 10.1184C8.73102 10.0797 8.82157 10.0599 8.91392 10.0599C9.08793 10.0599 9.24271 10.1068 9.37569 10.2017C9.51802 10.301 9.58411 10.4587 9.58411 10.6597V11.5068C9.58411 11.5407 9.58881 11.5583 9.59246 11.566C9.59365 11.5654 9.59531 11.5642 9.59783 11.5614C9.60452 11.5541 9.61387 11.5385 9.62269 11.5094C9.64092 11.4493 9.65053 11.3783 9.65053 11.2958V11.235H9.86816V11.2958C9.86816 11.4619 9.84343 11.5956 9.78437 11.6865C9.75354 11.7361 9.71052 11.7754 9.65709 11.8045C9.60174 11.8346 9.53943 11.8489 9.47188 11.8489C9.37529 11.8489 9.29276 11.8351 9.23171 11.8006L9.23078 11.8001L9.22985 11.7996C9.19187 11.7763 9.15932 11.7447 9.13161 11.7064C9.03437 11.8015 8.90848 11.8489 8.75833 11.8489C8.6239 11.8489 8.50524 11.816 8.40547 11.7476L8.40488 11.7472C8.29736 11.6716 8.25049 11.5475 8.25049 11.3929C8.25049 11.2311 8.31068 11.099 8.43272 11.0037ZM9.07036 11.5927C9.07679 11.5862 9.08296 11.5793 9.08899 11.5719C9.09542 11.564 9.10165 11.5554 9.10762 11.5463C9.11557 11.5342 9.12319 11.521 9.13035 11.5068V10.8439L8.94096 10.9108C8.86659 10.9377 8.81137 10.989 8.77524 11.0648C8.74143 11.1385 8.72453 11.2378 8.72453 11.3628C8.72453 11.4722 8.74481 11.548 8.78538 11.5904C8.82602 11.6329 8.87222 11.6541 8.92406 11.6541C8.9808 11.6541 9.02959 11.6336 9.07036 11.5927ZM8.83105 11.0904C8.80242 11.153 8.78604 11.2425 8.78604 11.3628C8.78604 11.4687 8.80646 11.5239 8.83006 11.5486C8.86075 11.5807 8.89151 11.5932 8.92406 11.5932C8.97928 11.5932 9.0278 11.5665 9.06884 11.4919V10.9302L8.96198 10.968L8.96178 10.9681C8.90404 10.989 8.86075 11.0282 8.83105 11.0904Z" fill="#CA90BD"/>
<path fill-rule="evenodd" clip-rule="evenodd" d="M5.95898 11.6066H6.20247V9.50538H5.95898V9.30326H6.7177V11.6066H6.96118V11.8087H5.95898V11.6066ZM6.66639 11.6574C6.65963 11.6485 6.65625 11.634 6.65625 11.6139V9.36416H6.02047V9.44449H6.20985C6.23014 9.44449 6.24366 9.44895 6.25043 9.45787C6.25944 9.46457 6.26395 9.47795 6.26395 9.49803V11.6139C6.26395 11.634 6.25944 11.6485 6.25043 11.6574C6.24366 11.6641 6.23014 11.6675 6.20985 11.6675H6.02047V11.7478H6.89973V11.6675H6.71034C6.69005 11.6675 6.67541 11.6641 6.66639 11.6574Z" fill="#CA90BD"/>
<path fill-rule="evenodd" clip-rule="evenodd" d="M3.31597 11.6976C3.4039 11.7578 3.50985 11.788 3.63385 11.788C3.77413 11.788 3.88747 11.7429 3.97388 11.653C3.98008 11.6465 3.98615 11.6398 3.99208 11.6329C3.99777 11.6262 4.00334 11.6194 4.00876 11.6123C4.01006 11.6106 4.01134 11.6089 4.01261 11.6072H4.01937C4.02066 11.6098 4.02196 11.6124 4.02326 11.615C4.03144 11.631 4.04013 11.646 4.04933 11.6597C4.07487 11.698 4.10434 11.7273 4.13773 11.7478C4.18508 11.7746 4.25497 11.788 4.3474 11.788C4.40602 11.788 4.45787 11.7757 4.50296 11.7511C4.54805 11.7266 4.58299 11.6942 4.60779 11.6541C4.65099 11.5879 4.67538 11.4888 4.68096 11.3567C4.68178 11.3371 4.68219 11.3168 4.68219 11.2958H4.5875C4.5875 11.3829 4.57736 11.4599 4.55707 11.5268C4.53678 11.5938 4.50634 11.6273 4.46576 11.6273C4.42067 11.6273 4.39812 11.5871 4.39812 11.5068V10.6597C4.39812 10.4723 4.33726 10.3361 4.21551 10.2513C4.09377 10.1643 3.95174 10.1208 3.78941 10.1208C3.706 10.1208 3.62371 10.1386 3.54255 10.1743C3.46138 10.2078 3.39487 10.258 3.34302 10.325C3.29117 10.3897 3.26524 10.4644 3.26524 10.5493C3.26524 10.6229 3.28554 10.6798 3.32611 10.72C3.36895 10.758 3.41967 10.7769 3.47829 10.7769C3.52564 10.7769 3.56847 10.7624 3.6068 10.7334C3.64738 10.7022 3.66767 10.6597 3.66767 10.6062C3.66767 10.5705 3.65978 10.5415 3.644 10.5192C3.63047 10.4969 3.6068 10.4757 3.57298 10.4555C3.55269 10.4421 3.53803 10.4265 3.52902 10.4086C3.52226 10.3886 3.51888 10.3718 3.51888 10.3584C3.51888 10.3094 3.54142 10.2714 3.58651 10.2447C3.63385 10.2156 3.68909 10.2011 3.75222 10.2011C3.82661 10.2011 3.88748 10.2267 3.93482 10.2781C3.98217 10.3294 4.00584 10.412 4.00584 10.5259V10.7535L3.7556 10.8405C3.59102 10.8963 3.45462 10.9667 3.3464 11.0514C3.24045 11.134 3.18746 11.2479 3.18746 11.3929C3.18746 11.5358 3.2303 11.6373 3.31597 11.6976ZM3.94588 11.5927C3.95228 11.5862 3.95848 11.5793 3.96449 11.5719C3.97091 11.564 3.97712 11.5554 3.9831 11.5463C3.99108 11.5342 3.99866 11.521 4.00584 11.5068V10.8439L3.81646 10.9108C3.74207 10.9377 3.68683 10.989 3.65076 11.0648C3.61695 11.1385 3.60003 11.2378 3.60003 11.3628C3.60003 11.4722 3.62033 11.548 3.66091 11.5904C3.70148 11.6329 3.7477 11.6541 3.79956 11.6541C3.85632 11.6541 3.90509 11.6336 3.94588 11.5927ZM3.70658 11.0904C3.67793 11.153 3.66152 11.2425 3.66152 11.3628C3.66152 11.4687 3.68197 11.5239 3.70554 11.5486C3.73627 11.5807 3.76699 11.5932 3.79956 11.5932C3.85479 11.5932 3.90328 11.5665 3.94436 11.4919V10.9302L3.83748 10.968L3.83731 10.9681C3.77951 10.989 3.73623 11.0282 3.70658 11.0904ZM3.30833 11.0037C3.42316 10.9137 3.56605 10.8405 3.73546 10.783L3.73568 10.783L3.94436 10.7104V10.5259C3.94436 10.4181 3.92155 10.354 3.88942 10.3191C3.85449 10.2813 3.81049 10.262 3.75222 10.262C3.69895 10.262 3.65524 10.2741 3.61887 10.2964L3.61815 10.2968C3.59022 10.3134 3.58036 10.3323 3.58036 10.3584C3.58036 10.3622 3.58137 10.3705 3.58578 10.3846C3.58937 10.3903 3.59547 10.397 3.60605 10.4042C3.64324 10.4265 3.67513 10.4531 3.6956 10.486C3.71965 10.5209 3.72915 10.5625 3.72915 10.6062C3.72915 10.6774 3.70099 10.738 3.64455 10.7815L3.64415 10.7817C3.59532 10.8187 3.53941 10.8378 3.47829 10.8378C3.40488 10.8378 3.33947 10.8135 3.28512 10.7654L3.28385 10.7643L3.28264 10.763C3.22739 10.7084 3.20375 10.6341 3.20375 10.5493C3.20375 10.4513 3.23402 10.3632 3.29453 10.2876C3.35295 10.2122 3.42792 10.1558 3.51823 10.1184C3.60653 10.0797 3.69707 10.0599 3.78941 10.0599C3.96344 10.0599 4.11821 10.1068 4.25123 10.2018C4.39351 10.3011 4.45961 10.4587 4.45961 10.6597V11.5068C4.45961 11.5407 4.46433 11.5583 4.46796 11.566C4.46913 11.5654 4.47083 11.5642 4.47332 11.5614C4.48003 11.5541 4.48935 11.5385 4.49818 11.5094C4.51639 11.4493 4.52602 11.3783 4.52602 11.2958V11.235H4.74368V11.2958C4.74368 11.4619 4.71893 11.5956 4.65984 11.6865C4.62904 11.7361 4.58603 11.7754 4.53259 11.8045C4.47723 11.8346 4.41492 11.8489 4.3474 11.8489C4.25081 11.8489 4.16824 11.8351 4.10722 11.8006L4.10629 11.8001L4.10537 11.7996C4.06735 11.7763 4.03479 11.7447 4.00709 11.7064C3.90987 11.8015 3.78398 11.8489 3.63385 11.8489C3.4994 11.8489 3.38075 11.816 3.28097 11.7476L3.28035 11.7472C3.17284 11.6716 3.12598 11.5475 3.12598 11.3929C3.12598 11.2311 3.18617 11.0989 3.30833 11.0037Z" fill="#CA90BD"/>
<path fill-rule="evenodd" clip-rule="evenodd" d="M0.833254 11.7767L0.832777 11.7764C0.772148 11.7314 0.71897 11.6734 0.672826 11.6037L0.672541 11.6033L0.672269 11.6029C0.645672 11.5612 0.627048 11.5386 0.61613 11.5291C0.609723 11.5236 0.60284 11.5207 0.592366 11.5207C0.592392 11.5207 0.592351 11.5207 0.592366 11.5207C0.591817 11.5207 0.588648 11.5206 0.581812 11.5271C0.573573 11.535 0.562602 11.5503 0.55081 11.5776L0.550267 11.5789L0.4382 11.8087H0.284013V9.50538H0.0405273V9.30326H0.799267V10.1899C0.817928 10.1701 0.838 10.1521 0.859518 10.1359C0.926796 10.0852 1.00418 10.0599 1.08948 10.0599C1.22234 10.0599 1.34045 10.1059 1.44142 10.1958C1.53998 10.2812 1.61504 10.3924 1.66763 10.5274C1.72009 10.6619 1.74616 10.8044 1.74616 10.9544C1.74616 11.1026 1.71879 11.2452 1.66404 11.3819L1.66391 11.3822C1.60892 11.5171 1.53155 11.6291 1.43103 11.7166L1.43038 11.7171C1.32726 11.8042 1.2084 11.8489 1.07595 11.8489C0.984143 11.8489 0.902255 11.826 0.833744 11.7771L0.833254 11.7767ZM1.4006 10.2412C1.31042 10.1609 1.20672 10.1208 1.08948 10.1208C1.01734 10.1208 0.953086 10.1419 0.89672 10.1843C0.859909 10.212 0.827427 10.2464 0.799267 10.2874C0.785631 10.3073 0.77301 10.3288 0.761402 10.3518C0.760282 10.354 0.759175 10.3562 0.758075 10.3584L0.737783 10.3518V9.36416H0.102013V9.44449H0.291391C0.311682 9.44449 0.325209 9.44895 0.331972 9.45787C0.34099 9.46457 0.345499 9.47795 0.345499 9.49803V11.7478H0.399607L0.494295 11.5536C0.52135 11.4911 0.55404 11.4599 0.592366 11.4599C0.617166 11.4599 0.638583 11.4677 0.656619 11.4833C0.674656 11.4989 0.697201 11.5279 0.724254 11.5703C0.76709 11.6351 0.815561 11.6875 0.869667 11.7277C0.926033 11.7679 0.994796 11.788 1.07595 11.788C1.19319 11.788 1.29803 11.7489 1.39046 11.6708C1.48289 11.5904 1.55504 11.4867 1.60689 11.3594C1.65874 11.23 1.68467 11.095 1.68467 10.9544C1.68467 10.8115 1.65987 10.6765 1.61027 10.5493C1.56067 10.422 1.49078 10.3194 1.4006 10.2412ZM1.13718 11.4815C1.17167 11.3693 1.19032 11.195 1.19032 10.9544C1.19032 10.7138 1.17167 10.5394 1.13718 10.4272C1.1014 10.3107 1.0589 10.2888 1.02861 10.2888C1.01607 10.2888 0.988962 10.2977 0.947339 10.3472C0.910303 10.3912 0.87491 10.4643 0.844338 10.5724C0.814739 10.677 0.799267 10.8073 0.799267 10.9644C0.799267 11.092 0.812379 11.2076 0.838086 11.3115C0.864006 11.4163 0.896541 11.4958 0.933948 11.5527C0.973159 11.6067 1.00521 11.62 1.02861 11.62C1.0589 11.62 1.1014 11.598 1.13718 11.4815ZM0.883197 11.5871C0.84036 11.5224 0.805419 11.4354 0.778359 11.326C0.751306 11.2166 0.737783 11.0961 0.737783 10.9644C0.737783 10.8037 0.75356 10.6675 0.785128 10.556C0.816688 10.4443 0.855017 10.3618 0.900107 10.3082C0.945198 10.2547 0.988027 10.2279 1.02861 10.2279C1.17741 10.2279 1.25181 10.47 1.25181 10.9544C1.25181 11.4387 1.17741 11.6809 1.02861 11.6809C0.976758 11.6809 0.928287 11.6496 0.883197 11.5871Z" fill="#CA90BD"/>
</g>
<path d="M21.0681 20.488H21.6121C21.9321 20.488 22.2147 20.3653 22.4601 20.12C22.7054 19.864 22.8921 19.5547 23.0201 19.192L26.3961 9.32H27.0681L30.4921 19.672C30.6734 20.216 30.9881 20.488 31.4361 20.488H32.0761V21H26.4601V20.488H27.6121C27.7401 20.488 27.8414 20.44 27.9161 20.344C28.0014 20.2373 28.0441 20.1147 28.0441 19.976C28.0441 19.8587 28.0121 19.704 27.9481 19.512L27.4361 17.976H24.0761L23.7401 18.952C23.6227 19.2507 23.5641 19.5227 23.5641 19.768C23.5641 19.96 23.6387 20.1307 23.7881 20.28C23.9481 20.4187 24.1507 20.488 24.3961 20.488H25.1481V21H21.0681V20.488ZM24.2841 17.384H27.2441L25.7881 12.984L24.2841 17.384ZM36.1386 20.488H37.2586C37.3972 20.488 37.4932 20.456 37.5466 20.392C37.6106 20.3173 37.6426 20.2053 37.6426 20.056V10.504C37.6426 10.3547 37.6159 10.2533 37.5626 10.2C37.5092 10.1467 37.4079 10.12 37.2586 10.12H36.1386V9.608H41.5146V10.12H40.3946C40.2559 10.12 40.1546 10.1467 40.0906 10.2C40.0372 10.2533 40.0106 10.3547 40.0106 10.504V20.056C40.0106 20.2053 40.0372 20.3173 40.0906 20.392C40.1546 20.456 40.2559 20.488 40.3946 20.488H42.0106C42.5866 20.488 43.0772 20.1893 43.4826 19.592C43.8986 18.9947 44.2079 18.3653 44.4106 17.704C44.4852 17.4587 44.5652 17.1547 44.6506 16.792C44.7359 16.4293 44.7892 16.1893 44.8106 16.072H45.3226L45.1946 21H36.1386V20.488ZM49.2893 20.488H49.8333C50.1533 20.488 50.436 20.3653 50.6813 20.12C50.9266 19.864 51.1133 19.5547 51.2413 19.192L54.6173 9.32H55.2893L58.7133 19.672C58.8946 20.216 59.2093 20.488 59.6573 20.488H60.2973V21H54.6813V20.488H55.8333C55.9613 20.488 56.0626 20.44 56.1373 20.344C56.2226 20.2373 56.2653 20.1147 56.2653 19.976C56.2653 19.8587 56.2333 19.704 56.1693 19.512L55.6573 17.976H52.2973L51.9613 18.952C51.844 19.2507 51.7853 19.5227 51.7853 19.768C51.7853 19.96 51.86 20.1307 52.0093 20.28C52.1693 20.4187 52.372 20.488 52.6173 20.488H53.3693V21H49.2893V20.488ZM52.5053 17.384H55.4653L54.0093 12.984L52.5053 17.384ZM66.8558 12.728H66.7918V18.824C66.7918 19.3147 66.9785 19.7147 67.3518 20.024C67.7358 20.3333 68.2211 20.488 68.8078 20.488V21H64.1358V20.488C64.7225 20.488 65.2025 20.3333 65.5758 20.024C65.9598 19.7147 66.1518 19.3147 66.1518 18.824V11.992C66.1518 11.8747 66.1411 11.7893 66.1198 11.736C66.0985 11.6827 66.0505 11.6027 65.9758 11.496L65.3358 10.536C65.2291 10.376 65.1118 10.2693 64.9838 10.216C64.8558 10.152 64.6691 10.12 64.4238 10.12H64.1358V9.608H67.6878L72.8078 16.92V11.784C72.8078 11.2933 72.6158 10.8933 72.2318 10.584C71.8585 10.2747 71.3785 10.12 70.7918 10.12V9.608H75.4638V10.12C74.8771 10.12 74.3918 10.2747 74.0078 10.584C73.6345 10.8933 73.4478 11.2933 73.4478 11.784V21.288H72.8398L66.8558 12.728ZM84.0666 21.288C83.0746 21.288 82.2266 21.0107 81.5226 20.456C80.8292 19.8907 80.3066 19.1547 79.9546 18.248C79.6026 17.3307 79.4266 16.3493 79.4266 15.304C79.4266 14.2267 79.6079 13.2347 79.9706 12.328C80.3332 11.4107 80.8506 10.68 81.5226 10.136C82.2052 9.592 82.9999 9.32 83.9066 9.32C84.3012 9.32 84.6639 9.38933 84.9946 9.528C85.3359 9.656 85.6932 9.848 86.0666 10.104C86.3119 10.264 86.4932 10.344 86.6106 10.344C86.6959 10.344 86.7652 10.3227 86.8186 10.28C86.8719 10.2267 86.9199 10.1467 86.9626 10.04L87.2506 9.448H87.7786V14.36H87.2666C87.0212 12.984 86.5946 11.8853 85.9866 11.064C85.3892 10.2427 84.6959 9.832 83.9066 9.832C83.4052 9.832 82.9839 10.0773 82.6426 10.568C82.3119 11.0587 82.1466 11.8373 82.1466 12.904V17.704C82.1466 18.76 82.3332 19.5387 82.7066 20.04C83.0906 20.5307 83.5439 20.776 84.0666 20.776C85.3359 20.776 86.2799 20.1947 86.8986 19.032C87.2079 18.4667 87.4159 17.656 87.5226 16.6H88.0986C88.0666 17.0693 87.9919 17.544 87.8746 18.024C87.7679 18.4933 87.6239 18.904 87.4426 19.256C87.1119 19.896 86.6586 20.3973 86.0826 20.76C85.5172 21.112 84.8452 21.288 84.0666 21.288ZM92.5811 20.488H93.7011C93.8504 20.488 93.9517 20.4613 94.0051 20.408C94.0584 20.344 94.0851 20.2427 94.0851 20.104V10.504C94.0851 10.3547 94.0584 10.2533 94.0051 10.2C93.9517 10.1467 93.8504 10.12 93.7011 10.12H92.5811V9.608H101.573L101.669 13.32H101.157C101.157 13.2453 101.098 13.0053 100.981 12.6C100.874 12.1947 100.72 11.8267 100.517 11.496C100.272 11.0693 99.9891 10.7333 99.6691 10.488C99.3491 10.2427 98.9917 10.12 98.5971 10.12H96.8371C96.6984 10.12 96.5971 10.1467 96.5331 10.2C96.4797 10.2533 96.4531 10.3547 96.4531 10.504V14.92H97.2691C97.5571 14.92 97.8237 14.8027 98.0691 14.568C98.3144 14.3333 98.5064 14.0453 98.6451 13.704C98.7944 13.352 98.8691 13.0213 98.8691 12.712H99.3811V17.72H98.8691C98.8691 17.4 98.7944 17.0693 98.6451 16.728C98.5064 16.376 98.3144 16.0827 98.0691 15.848C97.8237 15.6133 97.5571 15.496 97.2691 15.496H96.4531V20.104C96.4531 20.2427 96.4797 20.344 96.5331 20.408C96.5971 20.4613 96.6984 20.488 96.8371 20.488H98.5811C99.1677 20.488 99.6584 20.2533 100.053 19.784C100.448 19.3147 100.746 18.792 100.949 18.216C101.034 17.9707 101.109 17.6667 101.173 17.304C101.237 16.9413 101.274 16.7013 101.285 16.584H101.797L101.701 21H92.5811V20.488Z" fill="#CA90BD"/>
<defs>
<clipPath id="clip0_102_803">
<rect width="18.4286" height="21" fill="white"/>
</clipPath>
</defs>
</svg>
